<?xml version="1.0" standalone="no"?><!DOCTYPE svg PUBLIC "-//W3C//DTD SVG 1.1//EN" "http://www.w3.org/Graphics/SVG/1.1/DTD/svg11.dtd"><svg class="icon" width="16px" height="16.00px" viewBox="0 0 1024 1024" version="1.1" xmlns="http://www.w3.org/2000/svg"><path fill="#88180a" d="M917.312 385.216H915.2c-38.4-8.768-66.112-30.72-87.488-68.032-19.2-32.896-25.6-74.56-12.8-111.872 6.4-15.36 2.176-35.136-12.8-48.256a398.592 398.592 0 0 0-145.024-89.984c-14.976-6.592-32-2.176-46.976 13.184-23.424 30.72-59.712 46.08-100.224 46.08-36.288 0-70.4-17.536-100.288-48.256-17.088-17.6-34.112-15.36-46.912-11.008-55.488 24.128-102.4 52.672-142.976 87.744a42.24 42.24 0 0 0-14.912 48.32c10.688 41.6 6.4 81.152-12.8 116.224-17.088 30.72-49.088 54.848-87.488 65.856-2.112 0-2.112 0-4.224 2.176-12.8 6.592-21.376 17.536-27.776 32.896v2.24c-6.4 32.896-8.512 61.44-8.512 89.92 0 28.544 2.112 61.44 8.512 87.744 2.176 17.536 12.8 32.896 32 37.312h2.176c38.4 8.768 66.112 30.72 87.424 68.032 19.2 32.896 25.6 74.56 12.8 111.872-6.4 15.36-2.112 35.072 12.8 48.256a389.952 389.952 0 0 0 147.2 89.92c2.176 0 4.288 2.24 8.576 2.24h6.4a48.192 48.192 0 0 0 34.112-15.36c23.488-28.544 59.712-46.08 100.288-46.08 36.224 0 70.4 17.536 100.224 48.256 8.576 8.768 19.2 15.36 29.888 15.36 4.288 0 10.688 0 14.912-2.176 55.488-24.128 102.4-52.672 142.976-87.744 14.912-8.832 21.312-30.72 14.912-48.32-10.688-41.6-6.4-81.152 12.8-116.224 17.088-30.72 49.088-54.848 87.488-65.856 2.112 0 2.112 0 4.224-2.176 12.8-6.592 21.376-17.536 27.776-32.896v-2.24c6.4-32.896 8.512-61.44 8.512-89.92-2.112-30.72-4.288-61.44-10.688-89.92-2.112-17.6-12.8-32.96-32-37.312z m-407.424 272.96c-83.2 0-149.376-62.336-149.376-147.904S426.688 362.24 509.888 362.24s149.312 62.464 149.312 148.032c0 85.568-66.112 147.904-149.312 147.904z"  /></svg>