<?xml version="1.0" standalone="no"?><!DOCTYPE svg PUBLIC "-//W3C//DTD SVG 1.1//EN" "http://www.w3.org/Graphics/SVG/1.1/DTD/svg11.dtd"><svg class="icon" width="16px" height="16.00px" viewBox="0 0 1024 1024" version="1.1" xmlns="http://www.w3.org/2000/svg"><path d="M478.62 54.044a66.748 66.748 0 0 1 66.76 0l346.532 200.068a66.768 66.768 0 0 1 33.38 57.816v400.144a66.768 66.768 0 0 1-33.38 57.816l-346.532 200.068a66.748 66.748 0 0 1-66.76 0l-346.532-200.068a66.768 66.768 0 0 1-33.38-57.816V311.928a66.768 66.768 0 0 1 33.38-57.816l346.532-200.068z" fill="#C4D4F7" /><path d="M105.96 281.664a66.892 66.892 0 0 1 15.248-19.72c71.064-39.328 289.524-167.32 365.292-211.784a66.76 66.76 0 0 1 58.88 3.884l346.532 200.068a66.736 66.736 0 0 1 24.524 24.592l-361.84 201.228a89.512 89.512 0 0 1-84.58 1.308C374.644 431.916 149.232 314.24 105.96 281.664z" fill="#DFEDFD" /><path d="M512.696 978.896l-0.3-413.728a105.452 105.452 0 0 1 54.268-92.272l349.768-194.2a66.696 66.696 0 0 1 8.86 33.232v400.144a66.768 66.768 0 0 1-33.38 57.816l-346.532 200.068a66.68 66.68 0 0 1-32.684 8.94z" fill="#AAB5E3" /><path d="M99.412 302.24a66.7 66.7 0 0 1 7.468-22.316l405.472 223.124v475.852a66.748 66.748 0 0 1-29.288-6.592l-356.652-206.092a66.796 66.796 0 0 1-27-44.456V302.24z" fill="#C3D3F8" /><path d="M462 262.772a50 40 0 1 0 100 0 50 40 0 1 0-100 0Z" fill="#3A4971" /><path d="M462.38 267.712c0.852-21.484 22.916-38.712 49.972-38.712 25.504 0 46.576 15.312 49.624 35.06-0.852 21.48-22.92 38.712-49.976 38.712-25.504 0-46.576-15.312-49.62-35.06z" fill="#4B5C83" /><path d="M811.864 422.772c16.608-9.68 51.076-17.956 50.944 11.616-0.128 29.132-27.744 57.096-51.46 70.592-16.38 9.32-51.184 17.664-50.944-11.62 0.236-28.948 28.06-56.952 51.46-70.588z" fill="#3A4971" /><path d="M760.74 498.304c0.976-28.512 28.36-55.912 51.444-69.34 15.72-9.144 47.06-16.912 50.596 6.86-1.008 28.608-28.104 55.88-51.432 69.156-15.38 8.752-47.008 16.64-50.608-6.676z" fill="#4B5C83" /><path d="M728.848 601.424c16.632-9.324 51.28-17.212 51.064 12.12-0.212 28.864-28.176 56.164-51.816 69.1-16.396 8.968-51.388 16.916-51.064-12.12 0.32-28.68 28.492-56.024 51.816-69.1z" fill="#3A4971" /><path d="M677.352 675.424c1.06-28.244 28.788-55.004 51.8-67.88 15.628-8.744 47.116-16.188 50.736 7.192-0.96 28.42-28.48 55.152-51.792 67.908-15.4 8.42-47.196 15.944-50.744-7.22z" fill="#4B5C83" /><path d="M645.068 776.892c16.648-8.968 51.488-16.472 51.184 12.62-0.296 28.604-28.62 55.236-52.172 67.612-16.404 8.616-51.596 16.172-51.184-12.62 0.404-28.416 28.936-55.092 52.172-67.612z" fill="#3A4971" /><path d="M593.204 849.36c1.14-27.98 29.224-54.088 52.152-66.416 15.644-8.416 47.304-15.496 50.868 7.732-1.04 28.164-28.912 54.24-52.144 66.448-15.408 8.092-47.384 15.252-50.876-7.764z" fill="#4B5C83" /><path d="M197.416 437.416c25.388 12.56 44.636 43.28 44.188 71.7-0.412 26.248-22.208 38.532-45.312 26.76-25.056-12.764-44.388-43.452-44.188-71.7 0.188-26.328 22.296-38.148 45.312-26.76z" fill="#3A4971" /><path d="M241.192 514.552c-3.14 22.452-23.456 32.248-44.9 21.324-23.176-11.808-41.456-38.948-43.908-65.312 2.96-22.5 23.528-31.944 44.9-21.332 23.46 11.648 41.66 38.82 43.908 65.32z" fill="#4B5C83" /><path d="M195.256 626.456c25.1 13.132 43.812 44.176 43.368 72.548-0.408 26.016-21.696 38.188-44.492 25.912-24.768-13.332-43.572-44.336-43.368-72.544 0.184-26.1 21.776-37.8 44.492-25.916z" fill="#3A4971" /><path d="M238.216 704.412c-3.08 22.236-22.932 31.892-44.084 20.504-22.9-12.328-40.7-39.764-43.096-66.128 2.9-22.284 23-31.584 44.084-20.516 23.188 12.176 40.908 39.644 43.096 66.14z" fill="#4B5C83" /><path d="M382.664 529.076c25.632 12.684 44.248 44.06 43.308 72.608-0.86 26.256-22.596 39.692-46.192 27.672-25.292-12.888-44.004-44.224-43.304-72.608 0.648-26.344 22.672-39.308 46.188-27.672z" fill="#3A4971" /><path d="M425.456 607.228c-3.532 22.536-23.804 33.268-45.676 22.128-23.372-11.908-41.128-39.576-43.136-66.108 3.36-22.588 23.872-32.964 45.676-22.136 23.668 11.752 41.332 39.452 43.136 66.116z" fill="#4B5C83" /><path d="M377.128 721.608c25.34 13.256 43.428 44.952 42.488 73.456-0.852 26.012-22.092 39.356-45.372 26.824-24.996-13.46-43.184-45.112-42.488-73.456 0.644-26.104 22.164-38.964 45.372-26.824z" fill="#3A4971" /><path d="M419.108 800.576c-3.472 22.32-23.288 32.924-44.864 21.312-23.092-12.432-40.372-40.392-42.324-66.924 3.3-22.372 23.348-32.616 44.864-21.32 23.384 12.276 40.572 40.272 42.324 66.932z" fill="#4B5C83" /></svg>