<?xml version="1.0" standalone="no"?><!DOCTYPE svg PUBLIC "-//W3C//DTD SVG 1.1//EN" "http://www.w3.org/Graphics/SVG/1.1/DTD/svg11.dtd"><svg class="icon" width="16px" height="16.00px" viewBox="0 0 1024 1024" version="1.1" xmlns="http://www.w3.org/2000/svg"><path fill="#000000" d="M836.713931 1024v-139.723034H469.910069l153.105655-181.142069a3129.202759 3129.202759 0 0 0 105.577931-130.471725c27.859862-36.793379 49.010759-68.57269 63.488-95.337931 28.495448-51.482483 42.725517-104.024276 42.725517-157.590069 0-84.215172-30.614069-154.800552-91.877517-211.791448C682.125241 50.952828 606.843586 22.457379 517.12 22.457379 331.281655 22.457379 226.445241 126.234483 202.610759 333.753379H350.631724C365.108966 215.958069 422.064552 157.060414 521.533793 157.060414c47.668966 0 87.640276 15.536552 119.949241 46.574345 32.308966 31.037793 48.481103 69.526069 48.481104 115.464827 0 31.885241-12.111448 67.795862-36.369655 107.802483-11.899586 20.409379-29.236966 45.726897-51.976828 75.917241-22.775172 30.190345-50.952828 65.924414-84.532965 107.166897L175.174621 1024h661.53931z"  /></svg>