<?xml version="1.0" standalone="no"?><!DOCTYPE svg PUBLIC "-//W3C//DTD SVG 1.1//EN" "http://www.w3.org/Graphics/SVG/1.1/DTD/svg11.dtd"><svg class="icon" width="16px" height="16.00px" viewBox="0 0 1024 1024" version="1.1" xmlns="http://www.w3.org/2000/svg"><path fill="#000000" d="M703.40608 453.3248c36.80256 12.3904 64.18432 32.68608 82.18624 60.88704 18.0224 28.20096 27.01312 94.3104 27.01312 198.30784 0 77.2096-8.8064 137.09312-26.4192 179.69152-17.59232 42.5984-47.98464 75.01824-91.17696 97.21856-43.2128 22.20032-98.6112 33.30048-166.21568 33.30048-76.8 0-137.09312-12.9024-180.89984-38.7072-43.78624-25.8048-72.6016-57.40544-86.38464-94.8224-13.80352-37.376-20.70528-102.27712-20.70528-194.68288v-76.8h242.40128v157.7984c0 42.00448 2.49856 68.7104 7.49568 80.09728 4.99712 11.40736 16.09728 17.1008 33.30048 17.1008 18.80064 0 31.19104-7.18848 37.19168-21.58592 6.00064-14.41792 9.0112-52.0192 9.0112-112.80384V671.1296c0-37.21216-4.1984-64.4096-12.5952-81.6128-8.3968-17.2032-20.80768-28.48768-37.21216-33.8944-16.384-5.40672-48.18944-8.4992-95.39584-9.29792V405.2992c57.58976 0 93.184-2.19136 106.8032-6.59456 13.59872-4.4032 23.38816-14.00832 29.3888-28.81536 6.00064-14.78656 9.0112-37.9904 9.0112-69.59104v-54.00576c0-33.9968-3.50208-56.40192-10.50624-67.1744-7.00416-10.81344-17.89952-16.22016-32.70656-16.22016-16.7936 0-28.28288 5.69344-34.48832 17.1008-6.20544 11.40736-9.29792 35.69664-9.29792 72.9088v79.79008H240.80384v-82.80064c0-92.79488 21.1968-155.50464 63.5904-188.08832C346.78784 29.22496 414.208 12.9024 506.59328 12.9024c115.6096 0 194.00704 22.58944 235.2128 67.7888 41.18528 45.19936 61.78816 108.01152 61.78816 188.416 0 54.39488-7.39328 93.696-22.20032 117.88288-14.78656 24.20736-40.79616 46.30528-77.98784 66.31424z"  /></svg>