<?xml version="1.0" standalone="no"?><!DOCTYPE svg PUBLIC "-//W3C//DTD SVG 1.1//EN" "http://www.w3.org/Graphics/SVG/1.1/DTD/svg11.dtd"><svg class="icon" width="16px" height="16.00px" viewBox="0 0 1024 1024" version="1.1" xmlns="http://www.w3.org/2000/svg"><path fill="#000000" d="M507.992276 1020.221793c-49.081379 0-90.518069-6.938483-124.292414-20.833103-33.809655-13.85931-59.956966-34.586483-78.459586-62.146207-18.502621-27.542069-31.673379-58.932966-39.529931-94.13738-7.838897-35.186759-11.758345-77.135448-11.758345-125.810758H422.311724c0 27.365517 1.006345 50.087724 3.001379 68.184276 2.030345 18.114207 6.055724 35.716414 12.076138 52.80662 6.038069 17.090207 15.501241 29.872552 28.371862 38.311725 12.870621 8.456828 29.166345 12.482207 48.869518 12.076137 12.482207 0 23.446069-2.206897 32.891586-6.638344 9.463172-4.413793 17.302069-9.445517 23.534345-15.095173 6.232276-5.632 11.564138-14.583172 15.995586-26.835862 4.413793-12.270345 7.750621-23.128276 9.957517-32.591448 2.206897-9.463172 3.813517-23.534345 4.819862-42.248828 1.006345-18.714483 1.624276-34.074483 1.818483-46.168276 0.194207-12.058483 0.300138-29.766621 0.300138-53.089103 0-25.352828-0.494345-46.468414-1.50069-63.382069a368.057379 368.057379 0 0 0-6.956138-51.888552c-3.61931-17.690483-8.651034-31.567448-15.077517-41.630896-6.444138-10.063448-15.483586-18.308414-27.153655-24.734897-11.652414-6.444138-25.741241-9.657379-42.248828-9.657379-23.728552 0-43.749517 8.033103-60.027586 24.134621-16.295724 16.083862-27.877517 37.005241-34.710069 62.764137h-147.244138L276.886069 5.826207H731.277241v156.301241H423.512276l-10.24 235.943724c13.259034-14.477241 31.673379-26.253241 55.207724-35.310344 23.534345-9.039448 49.575724-13.965241 78.141793-14.77738 39.017931-1.606621 73.021793 4.413793 101.976276 18.096552a164.881655 164.881655 0 0 1 69.702621 61.563586c17.496276 27.365517 30.472828 59.639172 38.929655 96.856276 8.439172 37.199448 12.658759 79.748414 12.658758 127.629241 0 44.243862-2.118621 83.685517-6.320551 118.272a471.234207 471.234207 0 0 1-23.534345 100.457931c-11.475862 32.397241-26.765241 59.056552-45.868138 79.977932-19.102897 20.903724-44.349793 37.711448-75.74069 50.370206-31.373241 12.676414-68.184276 19.014621-110.433103 19.014621z"  /></svg>