<?xml version="1.0" standalone="no"?><!DOCTYPE svg PUBLIC "-//W3C//DTD SVG 1.1//EN" "http://www.w3.org/Graphics/SVG/1.1/DTD/svg11.dtd"><svg class="icon" width="16px" height="16.00px" viewBox="0 0 1024 1024" version="1.1" xmlns="http://www.w3.org/2000/svg"><path d="M160.095896 0.186779h703.51471a160.095891 160.095891 0 0 1 160.09589 160.09589v703.594758a160.095891 160.095891 0 0 1-160.09589 160.09589H160.095896a160.095891 160.095891 0 0 1-160.09589-160.09589V160.282669a160.095891 160.095891 0 0 1 160.09589-160.09589z" fill="#FFFFFF" /><path d="M358.321292 136.695208A102.381322 102.381322 0 1 1 255.93997 239.07653a102.381322 102.381322 0 0 1 102.381322-102.381322z m307.143966 0a102.381322 102.381322 0 1 1-102.381322 102.381322 102.381322 102.381322 0 0 1 102.381322-102.381322z m0 273.016859a102.381322 102.381322 0 1 1-102.381322 102.381322 102.381322 102.381322 0 0 1 102.381322-102.381322z m-307.143966 0a102.381322 102.381322 0 1 1-102.381322 102.381322 102.381322 102.381322 0 0 1 102.381322-102.381322z m307.143966 273.016859a102.381322 102.381322 0 1 1-102.381322 102.381322 102.381322 102.381322 0 0 1 102.381322-102.381322z m-307.143966 0a102.381322 102.381322 0 1 1-102.381322 102.381322 102.381322 102.381322 0 0 1 102.381322-102.381322z" fill="#151414" /><path d="M452.511041 0.186779h118.764468a426.922375 426.922375 0 0 1 426.922376 426.922375v41.971806a426.922375 426.922375 0 0 1-426.922376 426.922375h-118.764468a426.922375 426.922375 0 0 1-426.922376-426.922375v-41.971806a426.922375 426.922375 0 0 1 426.922376-426.922375z" opacity=".03" /><path d="M85.331115 913.08023h861.68945a34.287203 34.287203 0 0 1 34.127107 25.58866v8.538448c0 37.6759-60.756391 68.254215-76.765979 68.254214H127.969988c-15.182427 0-85.384475-30.578315-85.384475-68.254214v-8.538448c0.080048-14.141804 28.550434-25.58866 42.745602-25.58866z" opacity=".1" /></svg>